HIERARCHY
ROOT Hips
{
    OFFSET   0.000000   0.000000   0.000000
    CHANNELS 6 Xposition Yposition Zposition Zrotation Xrotation Yrotation
    JOINT Chest
    {
        OFFSET   0.000000   8.007230   0.000000
        CHANNELS 3 Zrotation Xrotation Yrotation
        JOINT Chest2
        {
            OFFSET   0.000000  22.077100   0.000000
            CHANNELS 3 Zrotation Xrotation Yrotation
            JOINT Neck
            {
                OFFSET   0.000000  23.254800  -0.000021
                CHANNELS 3 Zrotation Xrotation Yrotation
                JOINT Head
                {
                    OFFSET   0.000000  14.370000   1.956610
                    CHANNELS 3 Zrotation Xrotation Yrotation
                    End Site
                    {
                        OFFSET   0.000000  19.566000   0.000000
                    }
                }
            }
            JOINT LeftCollar
            {
                OFFSET   3.911900  19.017000  -0.467063
                CHANNELS 3 Zrotation Xrotation Yrotation
                JOINT LeftShoulder
                {
                    OFFSET  10.383700   0.000000   0.000000
                    CHANNELS 3 Zrotation Xrotation Yrotation
                    JOINT LeftElbow
                    {
                        OFFSET  26.662100   0.001529   0.000325
                        CHANNELS 3 Zrotation Xrotation Yrotation
                        JOINT LeftWrist
                        {
                            OFFSET  28.869000  -0.000011  -0.000096
                            CHANNELS 3 Zrotation Xrotation Yrotation
                            JOINT LeftFinger0
                            {
                                OFFSET   2.044650  -2.323460   3.252850
                                CHANNELS 3 Zrotation Xrotation Yrotation
                                JOINT LeftFinger01
                                {
                                    OFFSET   3.088130   0.000000   0.000000
                                    CHANNELS 3 Zrotation Xrotation Yrotation
                                    JOINT LeftFinger02
                                    {
                                        OFFSET   2.639460   0.000000   0.000000
                                        CHANNELS 3 Zrotation Xrotation Yrotation
                                        End Site
                                        {
                                            OFFSET   2.582190   0.000000   0.000000
                                        }
                                    }
                                }
                            }
                            JOINT LeftFinger1
                            {
                                OFFSET   8.364480   0.000000   3.252850
                                CHANNELS 3 Zrotation Xrotation Yrotation
                                JOINT LeftFinger11
                                {
                                    OFFSET   4.646930   0.000000   0.000000
                                    CHANNELS 3 Zrotation Xrotation Yrotation
                                    JOINT LeftFinger12
                                    {
                                        OFFSET   2.323460   0.000000   0.000000
                                        CHANNELS 3 Zrotation Xrotation Yrotation
                                        End Site
                                        {
                                            OFFSET   2.273050   0.000000   0.000000
                                        }
                                    }
                                }
                            }
                            JOINT LeftFinger2
                            {
                                OFFSET   8.364480   0.000016   1.078090
                                CHANNELS 3 Zrotation Xrotation Yrotation
                                JOINT LeftFinger21
                                {
                                    OFFSET   5.111620   0.000000   0.000000
                                    CHANNELS 3 Zrotation Xrotation Yrotation
                                    JOINT LeftFinger22
                                    {
                                        OFFSET   2.788160   0.000017   0.000000
                                        CHANNELS 3 Zrotation Xrotation Yrotation
                                        End Site
                                        {
                                            OFFSET   2.727660   0.000000   0.000000
                                        }
                                    }
                                }
                            }
                            JOINT LeftFinger3
                            {
                                OFFSET   7.899780   0.000015  -1.078090
                                CHANNELS 3 Zrotation Xrotation Yrotation
                                JOINT LeftFinger31
                                {
                                    OFFSET   4.646920   0.000000   0.000000
                                    CHANNELS 3 Zrotation Xrotation Yrotation
                                    JOINT LeftFinger32
                                    {
                                        OFFSET   2.323470   0.000000   0.000000
                                        CHANNELS 3 Zrotation Xrotation Yrotation
                                        End Site
                                        {
                                            OFFSET   2.273050   0.000000   0.000000
                                        }
                                    }
                                }
                            }
                            JOINT LeftFinger4
                            {
                                OFFSET   7.435090   0.000000  -3.252850
                                CHANNELS 3 Zrotation Xrotation Yrotation
                                JOINT LeftFinger41
                                {
                                    OFFSET   3.717550   0.000000   0.000000
                                    CHANNELS 3 Zrotation Xrotation Yrotation
                                    JOINT LeftFinger42
                                    {
                                        OFFSET   1.858760   0.000000   0.000000
                                        CHANNELS 3 Zrotation Xrotation Yrotation
                                        End Site
                                        {
                                            OFFSET   1.818440   0.000000   0.000000
                                        }
                                    }
                                }
                            }
                        }
                    }
                }
            }
            JOINT RightCollar
            {
                OFFSET  -3.911900  19.017000  -0.467062
                CHANNELS 3 Zrotation Xrotation Yrotation
                JOINT RightShoulder
                {
                    OFFSET -10.383700   0.000015   0.000000
                    CHANNELS 3 Zrotation Xrotation Yrotation
                    JOINT RightElbow
                    {
                        OFFSET -26.662100   0.001341   0.000385
                        CHANNELS 3 Zrotation Xrotation Yrotation
                        JOINT RightWrist
                        {
                            OFFSET -28.869000   0.000025  -0.000080
                            CHANNELS 3 Zrotation Xrotation Yrotation
                            JOINT RightFinger0
                            {
                                OFFSET  -2.044650  -2.323490   3.252850
                                CHANNELS 3 Zrotation Xrotation Yrotation
                                JOINT RightFinger01
                                {
                                    OFFSET  -3.088130   0.000000   0.000000
                                    CHANNELS 3 Zrotation Xrotation Yrotation
                                    JOINT RightFinger02
                                    {
                                        OFFSET  -2.639460   0.000000   0.000000
                                        CHANNELS 3 Zrotation Xrotation Yrotation
                                        End Site
                                        {
                                            OFFSET  -2.582190   0.000000   0.000000
                                        }
                                    }
                                }
                            }
                            JOINT RightFinger1
                            {
                                OFFSET  -8.364480   0.000000   3.252850
                                CHANNELS 3 Zrotation Xrotation Yrotation
                                JOINT RightFinger11
                                {
                                    OFFSET  -4.646930   0.000000   0.000000
                                    CHANNELS 3 Zrotation Xrotation Yrotation
                                    JOINT RightFinger12
                                    {
                                        OFFSET  -2.323470   0.000000   0.000000
                                        CHANNELS 3 Zrotation Xrotation Yrotation
                                        End Site
                                        {
                                            OFFSET  -2.273050   0.000000   0.000000
                                        }
                                    }
                                }
                            }
                            JOINT RightFinger2
                            {
                                OFFSET  -8.364480   0.000000   1.078090
                                CHANNELS 3 Zrotation Xrotation Yrotation
                                JOINT RightFinger21
                                {
                                    OFFSET  -5.111610   0.000000   0.000000
                                    CHANNELS 3 Zrotation Xrotation Yrotation
                                    JOINT RightFinger22
                                    {
                                        OFFSET  -2.788160   0.000000   0.000000
                                        CHANNELS 3 Zrotation Xrotation Yrotation
                                        End Site
                                        {
                                            OFFSET  -2.727660   0.000000   0.000000
                                        }
                                    }
                                }
                            }
                            JOINT RightFinger3
                            {
                                OFFSET  -7.899780   0.000000  -1.078090
                                CHANNELS 3 Zrotation Xrotation Yrotation
                                JOINT RightFinger31
                                {
                                    OFFSET  -4.646920   0.000000   0.000000
                                    CHANNELS 3 Zrotation Xrotation Yrotation
                                    JOINT RightFinger32
                                    {
                                        OFFSET  -2.323470   0.000000   0.000000
                                        CHANNELS 3 Zrotation Xrotation Yrotation
                                        End Site
                                        {
                                            OFFSET  -2.273050   0.000000   0.000000
                                        }
                                    }
                                }
                            }
                            JOINT RightFinger4
                            {
                                OFFSET  -7.435090   0.000000  -3.252850
                                CHANNELS 3 Zrotation Xrotation Yrotation
                                JOINT RightFinger41
                                {
                                    OFFSET  -3.717550   0.000000   0.000000
                                    CHANNELS 3 Zrotation Xrotation Yrotation
                                    JOINT RightFinger42
                                    {
                                        OFFSET  -1.858770   0.000000   0.000000
                                        CHANNELS 3 Zrotation Xrotation Yrotation
                                        End Site
                                        {
                                            OFFSET  -1.818440   0.000000   0.000000
                                        }
                                    }
                                }
                            }
                        }
                    }
                }
            }
        }
    }
    JOINT LeftHip
    {
        OFFSET   9.783010   0.000000   0.000000
        CHANNELS 3 Zrotation Xrotation Yrotation
        JOINT LeftKnee
        {
            OFFSET   0.000070 -41.789100   0.000028
            CHANNELS 3 Zrotation Xrotation Yrotation
            JOINT LeftAnkle
            {
                OFFSET   0.000087 -41.133200  -0.000100
                CHANNELS 3 Zrotation Xrotation Yrotation
                JOINT LeftToe
                {
                    OFFSET   0.000000  -6.358960  14.674500
                    CHANNELS 3 Zrotation Xrotation Yrotation
                    End Site
                    {
                        OFFSET   0.000000   0.000000   3.913200
                    }
                }
            }
        }
    }
    JOINT RightHip
    {
        OFFSET  -9.783020   0.000000   0.000000
        CHANNELS 3 Zrotation Xrotation Yrotation
        JOINT RightKnee
        {
            OFFSET   0.000044 -41.789100  -0.000870
            CHANNELS 3 Zrotation Xrotation Yrotation
            JOINT RightAnkle
            {
                OFFSET  -0.000090 -41.133200  -0.000245
                CHANNELS 3 Zrotation Xrotation Yrotation
                JOINT RightToe
                {
                    OFFSET   0.000000  -6.358960  14.674500
                    CHANNELS 3 Zrotation Xrotation Yrotation
                    End Site
                    {
                        OFFSET   0.000000   0.000000   3.913200
                    }
                }
            }
        }
    }
}
MOTION
Frames: 5
Frame Time:   0.016667
  5.029420  89.307800   3.412930  -3.721560 -16.020200  -6.097310   0.602959  11.873600   0.461729   1.141000  23.751300   0.818466  -1.271620  -2.658930  -0.049364  -2.107580  -5.383680   7.796430  -6.031420  -8.666570   6.693020 -40.880300   2.253090 -59.047000  17.498500  11.104800 -46.386400  25.360000  -3.044670 -12.131000  39.689800  36.304600 -53.955000 -35.032300  -0.019335   0.124607 -12.920900  -0.027982   0.073935 -36.786700  -3.343430   4.161630 -30.119200   0.021430   0.000389 -21.083400   0.012327   0.006305 -80.843000  -5.389130   0.622594 -80.879500  -0.145015   0.014847 -60.659400  -0.070991  -0.082861 -35.148100  -4.590830   5.999020 -50.334600   0.002207   0.101240 -34.085500  -0.014743   0.049157 -37.308100 -11.338600  13.976800 -57.854300   0.027954   0.115001 -38.530900  -0.027324   0.077472   0.401197  -5.702450   9.846920  36.842700   3.787780  65.713300 -14.947000  15.828600  33.807800 -46.344500  12.622900  18.884900 -34.411300  34.246200  73.492300  35.132000  -0.008611  -0.023020  12.566000  -0.007358  -0.011143  38.589000   0.130983   0.256478  31.587800  -0.000643   0.002262  22.111500  -0.001461   0.001455  30.594900  -2.744810  -4.536190  46.437700  -0.000164   0.011019  30.927500   0.005940   0.005232  32.202400  -3.559390  -5.534990  48.690400   0.001797   0.009702  32.427800   0.004369   0.005021  42.108900  -4.451460  -4.855370  63.528800  -0.013147  -0.015486  42.310200  -0.013322   0.000275   0.243117  17.502700   3.239880   0.086825   6.182310  11.302900  -1.011520  -7.422070   2.814230  -0.000000   0.000000   0.000000  -2.121110  16.576800  -6.182450  -2.981070   7.361390  -8.247830   4.596660  -4.640230   5.975660  -0.000000   0.000000   0.000000
  4.963010  89.329100   3.405430  -3.653900 -15.651600  -5.928920   0.638966  11.606800   0.450943   1.221280  23.217700   0.791685  -1.272100  -2.607430  -0.049330  -2.102550  -5.279490   7.501460  -6.862390  -9.093630   5.498450 -42.381500   3.767980 -54.370400  17.142400  11.053100 -48.437400  21.721500  -5.456840  -9.197520  36.459000  32.293900 -49.109700 -37.669300  -0.000582   0.012440 -14.781400  -0.006970   0.020075 -38.629200  -4.522280   5.610530 -31.770200   0.030245  -0.122024 -22.239100   0.050227  -0.072271 -85.863400  -7.213560   0.727652 -85.867000   0.080546   0.003009 -64.400300   0.026772   0.052709 -38.962200  -5.836340   7.014380 -54.095000   0.033650  -0.083483 -36.984300   0.095686  -0.052061 -39.718000 -13.521100  15.982800 -62.439900   0.119384  -0.163440 -41.585000   0.130334  -0.033064   1.005720  -5.432830  10.284400  37.882600   5.436990  62.463000 -14.224400  15.293800  34.889000 -43.366600  13.504100  17.185100 -34.137300  33.137800  71.365500  35.614900   0.000000  -0.008127  12.807500  -0.000919  -0.003907  38.641800  -0.667745  -0.756366  31.638300   0.000000   0.010605  22.146800  -0.000060   0.006469  30.866500  -3.352020  -5.533690  46.555300   0.000486   0.023331  31.005800   0.011126   0.011489  32.526800  -4.064220  -6.200010  49.154900   0.006297   0.026846  32.737200   0.013041   0.012933  42.762100  -5.088020  -5.405630  64.535000  -0.008134  -0.012847  42.980300  -0.009577   0.000901   0.282279  17.255000   3.164530   0.106533   5.903230  10.955000  -0.939886  -7.383480   3.048080   0.000000   0.000000   0.000000  -2.108360  16.409100  -6.153980  -2.858250   7.027920  -8.257080   4.504230  -4.696770   5.594080   0.000000   0.000000  -0.000000
  4.906690  89.340200   3.406520  -3.524680 -15.230800  -5.670260   0.635704  11.304300   0.417623   1.224360  22.612400   0.725062  -1.245010  -2.540990  -0.049308  -2.052980  -5.144900   7.257590  -7.704260  -9.526210   4.400270 -44.346900   5.386410 -49.293000  16.859200  10.924600 -50.553800  18.971200  -7.205570  -6.692740  37.207600  33.471400 -50.058500 -37.024200  -0.000073   0.057722 -14.447800  -0.011132   0.041987 -38.486200  -4.978080   6.266560 -31.665600   0.041165  -0.120755 -22.165900   0.058354  -0.070846 -87.977800  -8.025000   0.544756 -87.920200   0.065501   0.027304 -65.940200   0.002758   0.050920 -38.631400  -5.652080   6.957870 -54.362900   0.018520  -0.044218 -36.965900   0.057402  -0.028070 -39.819400 -12.397600  14.480100 -62.129000   0.080428  -0.097681 -41.377900   0.082485  -0.015596   1.544710  -4.954270  10.636700  38.920200   7.138280  59.230400 -12.967600  14.395200  35.616200 -40.733300  14.152000  15.269500 -33.520600  31.246700  69.015200  35.857000   0.001106  -0.001876  12.928600   0.001654   0.005896  38.099200  -1.340810  -1.626770  31.208700   0.000000   0.005522  21.846100  -0.000062   0.003319  30.484800  -3.682940  -6.214870  46.048500   0.000583   0.017026  30.668300   0.008019   0.008432  32.135900  -4.535360  -7.053280  48.672100   0.006026   0.025685  32.415700   0.012214   0.012610  42.895500  -5.759570  -6.114330  64.772000  -0.013512  -0.016683  43.138100  -0.014043   0.001513   0.289788  16.978600   3.125310   0.123551   5.595670  10.501400  -0.853789  -7.352510   3.310490   0.000000   0.000000  -0.000000  -2.150780  16.209000  -6.176870  -2.716000   6.665940  -8.149580   4.425510  -4.744400   5.046370  -0.000000   0.000000  -0.000000
  4.860910  89.343800   3.414170  -3.320500 -14.749100  -5.302080   0.608071  10.964500   0.339374   1.182030  21.932000   0.573845  -1.193570  -2.492690  -0.049236  -1.971790  -5.048160   7.121420  -8.426340  -9.786300   3.759960 -46.593300   6.935450 -44.359600  16.036500  10.823600 -51.705900  16.629200  -8.488320  -4.479860  38.767100  35.551800 -52.130000 -35.899100   0.000000   0.106846 -13.748900  -0.016350   0.067081 -38.272500  -5.150320   6.616200 -31.434000   0.048138  -0.111871 -22.003800   0.059515  -0.061415 -88.455200  -8.422780   0.360841 -88.353100   0.044620   0.051599 -66.264700  -0.021255   0.046993 -38.198900  -5.428070   6.901000 -54.401200   0.000506   0.000669 -36.919400   0.002142   0.004762 -39.737100 -11.250700  12.996100 -61.645600   0.020105   0.003427 -41.055900   0.008607   0.010736   2.096800  -4.358300  11.002400  39.893100   8.780540  56.147300 -11.457300  13.368600  35.825200 -37.950500  14.535200  13.023000 -33.054300  29.270500  67.003300  35.905900   0.001393  -0.000856  12.953000   0.002617   0.015484  37.537400  -1.995120  -2.482820  30.779200   0.000000  -0.001919  21.545400  -0.000064  -0.001321  30.079200  -3.800540  -6.519350  45.445300   0.000611   0.006568  30.266500   0.002952   0.003317  31.616600  -4.908410  -7.830080  47.953800   0.005457   0.020868  31.937300   0.009647   0.010352  42.880500  -6.334440  -6.750000  64.902300  -0.018889  -0.020518  43.224900  -0.018508   0.002102   0.247586  16.562600   3.081130   0.150116   5.421950  10.022400  -0.784704  -7.319660   3.464060  -0.000000   0.000000   0.000000  -2.243930  15.964800  -6.232870  -2.555780   6.293550  -8.003250   4.362370  -4.780690   4.405590   0.000000   0.000000  -0.000000
  4.837050  89.343700   3.437250  -3.006080 -14.169400  -4.767200   0.547045  10.566400   0.158544   1.093180  21.134300   0.217618  -1.135210  -2.485640  -0.048950  -1.871990  -5.035170   7.140510  -8.871090  -9.577500   3.919370 -49.001000   8.244830 -40.265500  14.304700  10.769400 -51.642700  14.369400  -9.372820  -2.552600  41.220900  37.962100 -55.583900 -34.624200  -0.000400   0.111329 -12.621400  -0.017583   0.070792 -37.830800  -5.296980   7.002540 -31.030800   0.046751  -0.065214 -21.721600   0.048831  -0.030818 -87.746900  -8.786410   0.497985 -87.637100   0.036325   0.049844 -65.727700  -0.020234   0.040226 -38.072800  -5.380800   6.983740 -54.307100  -0.002859   0.007230 -36.825200  -0.027480   0.016139 -39.538100 -11.305000  13.216000 -61.266700  -0.026402   0.079069 -40.803600  -0.047655   0.028719   2.719390  -3.642820  11.537200  40.410200  10.340100  53.546100  -9.995590  12.269000  35.600400 -34.304300  14.116300  10.121600 -32.470500  27.754000  65.391300  35.736600   0.001712  -0.000970  12.868400   0.003636   0.023894  37.608700  -2.828710  -3.585010  30.872300   0.000000  -0.006270  21.610500  -0.000032  -0.004126  30.006700  -3.767060  -6.493130  45.332800   0.000651  -0.003739  30.191600  -0.001785  -0.001858  31.290200  -5.074250  -8.249690  47.494700   0.004754   0.007403  31.631500   0.003512   0.002914  43.175500  -6.666070  -7.039610  65.392200  -0.015268  -0.016164  43.551200  -0.014762   0.002662   0.139943  15.795900   2.971460   0.198965   5.491240   9.610090  -0.758216  -7.266810   3.460270  -0.000000   0.000000   0.000000  -2.410020  15.637600  -6.331240  -2.371070   5.925480  -7.942200   4.307070  -4.798240   3.707490  -0.000000   0.000000   0.000000
